<?xml version="1.0" encoding="UTF-8"?>
<!DOCTYPE svg PUBLIC "-//W3C//DTD SVG 1.1//EN" "http://www.w3.org/Graphics/SVG/1.1/DTD/svg11.dtd">
<!-- Creator: CorelDRAW 2020 (64 Bit Versão de avaliação) -->
<svg xmlns="http://www.w3.org/2000/svg" xml:space="preserve" width="200px" height="200px" version="1.1" style="shape-rendering:geometricPrecision; text-rendering:geometricPrecision; image-rendering:optimizeQuality; fill-rule:evenodd; clip-rule:evenodd"
viewBox="0 0 200 200"
 xmlns:xlink="http://www.w3.org/1999/xlink"
 xmlns:xodm="http://www.corel.com/coreldraw/odm/2003">
 <defs>
  <style type="text/css">
   <![CDATA[
    .str0 {stroke:#4B4B4B;stroke-width:13.333;stroke-miterlimit:22.9256}
    .fil0 {fill:none}
    .fil1 {fill:#4B4B4B}
   ]]>
  </style>
 </defs>
 <g id="Camada_x0020_1">
  <metadata id="CorelCorpID_0Corel-Layer"/>
  <rect class="fil0 str0" x="8.8" y="8.8" width="182.4" height="182.4" rx="86.182" ry="91.2"/>
  <g id="_2739426555184">
   <path class="fil1" d="M95.033 129.373l9.934 0c1.028,0 16.992,9.352 17.403,9.595 0.756,0.449 1.357,0.727 2.078,1.162l14.042 7.988c0.132,0.079 0.378,0.23 0.531,0.332 0.407,0.27 0.179,0.079 0.503,0.362l-79.048 0 17.154 -9.844c1.191,-0.706 16.344,-9.595 17.403,-9.595zm53.779 -34.989l0 52.052c-0.666,-0.446 -1.477,-0.887 -2.17,-1.286l-34.331 -19.448c0.63,-0.942 2.37,-2.154 3.29,-2.974l12.569 -10.757c0.582,-0.456 0.647,-0.555 1.153,-1.007 0.487,-0.433 0.68,-0.495 1.184,-0.975 0.482,-0.459 0.574,-0.496 1.058,-0.886l17.247 -14.719zm-97.624 52.052l0 -52.052 13.662 11.609c0.511,0.488 0.666,0.551 1.177,0.983 0.489,0.414 0.642,0.63 1.144,1.015l18.304 15.605c0.848,0.807 1.549,1.112 2.214,2.106 -5.668,2.999 -12.414,7.061 -18.209,10.3l-9.079 5.176c-1.611,0.88 -2.933,1.717 -4.535,2.592l-4.678 2.666zm13.176 -49.892l0 -31.965 71.273 0 0 31.965c0,0.841 -6.348,5.8 -7.493,6.762l-18.158 15.535c-0.606,0.539 -4.472,4.053 -5.019,4.053l-9.934 0c-0.4,0 -1.553,-1.141 -1.974,-1.482l-9.658 -8.269c-0.725,-0.584 -1.132,-0.986 -1.884,-1.572l-10.61 -9.044c-0.38,-0.322 -0.518,-0.525 -0.896,-0.831 -0.677,-0.547 -1.375,-1.065 -2.026,-1.646 -0.662,-0.589 -1.21,-1.017 -1.84,-1.616 -0.519,-0.494 -1.781,-1.192 -1.781,-1.89zm77.752 -5.183l0 -7.344c0.736,0.493 1.452,1.097 2.219,1.669 0.683,0.51 1.889,1.204 2.317,1.787 -0.304,0.414 -1.692,1.51 -2.192,1.912 -0.775,0.625 -1.516,1.422 -2.344,1.976zm-88.768 -3.888c0.418,-0.57 1.549,-1.221 2.194,-1.694 0.795,-0.585 1.563,-1.24 2.342,-1.762l0 7.344 -4.536 -3.888zm46.652 -34.557l5.307 3.765c0.583,0.44 1.483,0.959 1.82,1.419l-14.254 0 3.454 -2.593c1.229,-0.863 2.301,-1.865 3.673,-2.591zm-55.291 102.375l110.582 0 0 -69.762 -11.694 -8.607c-1.634,-1.21 -1.496,-0.771 -1.482,-3.487l0.001 -15.335c-1.66,0 -22.952,0.304 -23.976,-0.214 -0.314,-0.159 -0.56,-0.433 -0.992,-0.736l-17.148 -12.441c-1.976,1.046 -15.402,11.518 -18.006,13.096 -0.937,0.567 -8.652,0.295 -10.071,0.295 -4.68,0 -9.359,0 -14.039,0l0 15.119c0.009,2.878 0.274,2.402 -1.481,3.703 -1.976,1.464 -3.849,2.867 -5.829,4.321l-5.865 4.286 0 69.762z"/>
   <path class="fil1" d="M100.648 90.497l2.592 0c0,2.413 0.36,4.927 -1.73,6.046 -4.512,2.415 -7.343,-6.046 -0.862,-6.046zm-23.326 1.944c0,6.045 0.82,9.527 4.144,14.43 3.464,5.109 10.742,9.544 17.238,9.544 6.631,0 7.15,-1.043 8.855,-1.08 -0.167,-2.014 -1.78,-4.296 -1.943,-6.264 -0.926,0 -1.378,0.224 -1.997,0.379 -8.148,2.039 -17.118,-3.298 -19.176,-11.387 -0.985,-3.869 -0.774,-7.199 0.807,-10.869 3.832,-8.895 15.261,-12.515 23.522,-6.981 2.308,1.547 4.2,3.492 5.487,5.96 0.872,1.674 2.724,6.788 1.506,9.074 -1.476,2.77 -6.046,2.163 -6.046,-2.158l0 -9.072 -10.367 0c-4.334,0 -9.071,4.275 -9.071,9.288 0,4.163 1.88,7.465 5.32,9.15 2.407,1.178 5.815,1.421 8.219,0.285 1.265,-0.597 1.662,-0.992 2.659,-1.66 2.782,1.863 3.367,2.376 7.128,2.376 4.535,0 9.071,-4.558 9.071,-9.072 0,-4.088 -0.402,-6.89 -2.159,-10.367 -2.483,-4.913 -5.626,-8.194 -10.656,-10.727 -7.454,-3.754 -16.152,-2.728 -22.997,1.913 -5.109,3.464 -9.544,10.741 -9.544,17.238z"/>
  </g>
 </g>
</svg>
