<?xml version="1.0" encoding="UTF-8"?>
<!DOCTYPE svg PUBLIC "-//W3C//DTD SVG 1.1//EN" "http://www.w3.org/Graphics/SVG/1.1/DTD/svg11.dtd">
<!-- Creator: CorelDRAW 2020 (64 Bit Versão de avaliação) -->
<svg xmlns="http://www.w3.org/2000/svg" xml:space="preserve" width="40px" height="40px" version="1.1" style="shape-rendering:geometricPrecision; text-rendering:geometricPrecision; image-rendering:optimizeQuality; fill-rule:evenodd; clip-rule:evenodd"
viewBox="0 0 40 40.001"
 xmlns:xlink="http://www.w3.org/1999/xlink"
 xmlns:xodm="http://www.corel.com/coreldraw/odm/2003">
 <defs>
  <style type="text/css">
   <![CDATA[
    .fil1 {fill:#39559F}
    .fil0 {fill:white}
   ]]>
  </style>
 </defs>
 <g id="Camada_x0020_1">
  <metadata id="CorelCorpID_0Corel-Layer"/>
  <rect class="fil0" x="3.201" y="2.602" width="34.208" height="35.949"/>
  <path class="fil1" d="M1.449 38.551l19.781 0 0 -14.347 -4.855 0 0 -5.796 4.855 0c0,-0.913 -0.054,-5.081 0.028,-5.624 0.473,-3.12 2.564,-5.327 5.715,-5.734 0.534,-0.069 4.794,-0.018 5.706,-0.018l0 5.289c-0.511,-0.198 -2.233,-0.072 -2.899,-0.072 -0.489,0 -0.975,-0.052 -1.35,0.098 -0.369,0.149 -0.687,0.345 -0.899,0.623 -0.573,0.753 -0.504,1.197 -0.504,2.467 0,0.99 0,1.98 0,2.971l5.579 0c-0.008,0.363 -0.127,0.983 -0.186,1.407l-0.38 2.881c-0.066,0.542 -0.158,0.941 -0.158,1.508l-4.855 0 0 14.347 11.521 0 0 -37.099 -37.099 0 0 37.099z"/>
 </g>
</svg>
