<?xml version="1.0" encoding="UTF-8"?>
<!DOCTYPE svg PUBLIC "-//W3C//DTD SVG 1.1//EN" "http://www.w3.org/Graphics/SVG/1.1/DTD/svg11.dtd">
<!-- Creator: CorelDRAW 2020 (64 Bit Versão de avaliação) -->
<svg xmlns="http://www.w3.org/2000/svg" xml:space="preserve" width="40px" height="40px" version="1.1" style="shape-rendering:geometricPrecision; text-rendering:geometricPrecision; image-rendering:optimizeQuality; fill-rule:evenodd; clip-rule:evenodd"
viewBox="0 0 40 40.001"
 xmlns:xlink="http://www.w3.org/1999/xlink"
 xmlns:xodm="http://www.corel.com/coreldraw/odm/2003">
 <defs>
  <style type="text/css">
   <![CDATA[
    .fil84 {fill:#7023C4}
    .fil15 {fill:#7124C2}
    .fil13 {fill:#7423C0}
    .fil8 {fill:#7623BD}
    .fil9 {fill:#7923BA}
    .fil11 {fill:#7C22B8}
    .fil0 {fill:#7E22B6}
    .fil7 {fill:#8122B3}
    .fil3 {fill:#8321B1}
    .fil40 {fill:#8621AF}
    .fil31 {fill:#8921AC}
    .fil52 {fill:#8C20A9}
    .fil49 {fill:#8E20A7}
    .fil71 {fill:#9120A5}
    .fil83 {fill:#931FA3}
    .fil68 {fill:#941FA1}
    .fil70 {fill:#971F9E}
    .fil77 {fill:#971F9F}
    .fil81 {fill:#991E9C}
    .fil38 {fill:#9B1E9A}
    .fil76 {fill:#9D1E99}
    .fil56 {fill:#9F1E97}
    .fil39 {fill:#A11D94}
    .fil43 {fill:#A21D94}
    .fil34 {fill:#A41D91}
    .fil29 {fill:#A61D90}
    .fil27 {fill:#A81C8E}
    .fil26 {fill:#AA1C8C}
    .fil24 {fill:#AC1C8A}
    .fil22 {fill:#AE1C88}
    .fil14 {fill:#B11B85}
    .fil18 {fill:#B41B82}
    .fil47 {fill:#B71B80}
    .fil54 {fill:#B81A7E}
    .fil60 {fill:#BA1A7C}
    .fil72 {fill:#BC1A7A}
    .fil79 {fill:#BE1979}
    .fil67 {fill:#C01977}
    .fil50 {fill:#C21974}
    .fil46 {fill:#C21C72}
    .fil74 {fill:#C21E71}
    .fil78 {fill:#C32070}
    .fil57 {fill:#C3226D}
    .fil80 {fill:#C3246C}
    .fil64 {fill:#C3266A}
    .fil73 {fill:#C32869}
    .fil28 {fill:#C42A67}
    .fil41 {fill:#C42F63}
    .fil82 {fill:#C43162}
    .fil61 {fill:#C53360}
    .fil45 {fill:#C5365E}
    .fil32 {fill:#C5385D}
    .fil65 {fill:#C53B5A}
    .fil48 {fill:#C53D59}
    .fil53 {fill:#C63F57}
    .fil42 {fill:#C64155}
    .fil33 {fill:#C64354}
    .fil19 {fill:#C64552}
    .fil16 {fill:#C64751}
    .fil25 {fill:#C64E4D}
    .fil20 {fill:#C7494F}
    .fil17 {fill:#C74C4D}
    .fil23 {fill:#C7514C}
    .fil75 {fill:#C9524C}
    .fil69 {fill:#C9544B}
    .fil21 {fill:#CA554B}
    .fil63 {fill:#CA584B}
    .fil59 {fill:#CB5A4A}
    .fil55 {fill:#CD5F49}
    .fil62 {fill:#CE6348}
    .fil66 {fill:#CF6548}
    .fil36 {fill:#D06947}
    .fil30 {fill:#D16D46}
    .fil51 {fill:#D37145}
    .fil58 {fill:#D47445}
    .fil44 {fill:#D57844}
    .fil35 {fill:#D67B44}
    .fil37 {fill:#D77E43}
    .fil10 {fill:#D88142}
    .fil2 {fill:#D88442}
    .fil4 {fill:#DA8741}
    .fil1 {fill:#DB8B40}
    .fil5 {fill:#DC8F3F}
    .fil6 {fill:#DD933E}
    .fil12 {fill:#DE963E}
    .fil85 {fill:#DF993D}
   ]]>
  </style>
 </defs>
 <g id="Camada_x0020_1">
  <metadata id="CorelCorpID_0Corel-Layer"/>
  <g id="_2739862191504">
   <polygon class="fil0" points="5.536,5.371 34.461,5.371 33.772,4.814 6.225,4.814 "/>
   <polygon class="fil1" points="6.913,35.738 33.083,35.738 33.772,35.187 6.225,35.187 "/>
   <polygon class="fil2" points="5.743,34.745 34.254,34.745 34.805,34.238 5.192,34.238 "/>
   <polygon class="fil3" points="4.71,6.236 10.563,6.236 29.433,6.236 35.287,6.236 34.874,5.78 5.123,5.78 "/>
   <polygon class="fil4" points="6.225,35.187 33.772,35.187 34.254,34.745 5.743,34.745 "/>
   <polygon class="fil5" points="7.74,36.22 32.257,36.22 33.083,35.738 6.913,35.738 "/>
   <polygon class="fil6" points="8.842,36.738 31.155,36.738 32.257,36.22 7.74,36.22 "/>
   <polygon class="fil7" points="5.123,5.78 34.874,5.78 34.461,5.371 5.536,5.371 "/>
   <polygon class="fil8" points="7.12,4.063 32.877,4.063 32.05,3.582 7.947,3.582 "/>
   <polygon class="fil9" points="6.569,4.483 33.428,4.483 32.877,4.063 7.12,4.063 "/>
   <polygon class="fil10" points="5.192,34.238 34.805,34.238 35.149,33.9 28.676,33.9 11.321,33.9 4.848,33.9 "/>
   <polygon class="fil11" points="6.225,4.814 33.772,4.814 33.428,4.483 6.569,4.483 "/>
   <polygon class="fil12" points="10.013,37.156 29.984,37.156 31.155,36.738 8.842,36.738 "/>
   <polygon class="fil13" points="7.947,3.582 32.05,3.582 31.293,3.208 8.704,3.208 "/>
   <polygon class="fil14" points="13.112,14.048 26.885,14.048 26.334,13.451 13.663,13.451 "/>
   <polygon class="fil15" points="8.704,3.208 31.293,3.208 30.397,2.846 9.6,2.846 "/>
   <polygon class="fil16" points="13.456,26.296 26.541,26.296 26.954,25.836 13.043,25.836 "/>
   <polygon class="fil17" points="14.351,27.186 25.646,27.186 26.197,26.689 13.8,26.689 "/>
   <polygon class="fil18" points="12.767,14.431 19.861,14.431 20.136,14.431 27.23,14.431 26.885,14.048 13.112,14.048 "/>
   <polygon class="fil19" points="13.043,25.836 26.954,25.836 27.23,25.475 20.894,25.475 19.103,25.475 12.767,25.475 "/>
   <polygon class="fil20" points="13.8,26.689 26.197,26.689 26.541,26.296 13.456,26.296 "/>
   <polygon class="fil21" points="17.45,28.701 22.547,28.701 24.199,28.022 15.797,28.022 "/>
   <polygon class="fil22" points="13.663,13.451 26.334,13.451 25.921,13.079 14.076,13.079 "/>
   <path class="fil23" d="M15.797 28.022l8.402 0c0.276,-0.031 0.623,-0.249 0.758,-0.457l-9.917 0c0.135,0.208 0.482,0.426 0.757,0.457z"/>
   <polygon class="fil24" points="14.076,13.079 25.921,13.079 25.508,12.717 14.489,12.717 "/>
   <polygon class="fil25" points="15.04,27.565 24.957,27.565 25.646,27.186 14.351,27.186 "/>
   <polygon class="fil26" points="14.489,12.717 25.508,12.717 25.026,12.373 14.971,12.373 "/>
   <polygon class="fil27" points="14.971,12.373 25.026,12.373 24.475,12.04 15.522,12.04 "/>
   <polygon class="fil28" points="2.368,20.792 5.95,20.792 5.95,19.96 2.368,19.96 "/>
   <polygon class="fil28" points="34.047,20.792 37.629,20.792 37.629,19.96 34.047,19.96 "/>
   <polygon class="fil28" points="10.908,20.792 14.489,20.792 14.42,19.96 10.839,19.96 "/>
   <polygon class="fil28" points="25.508,20.792 29.089,20.792 29.158,19.96 25.577,19.96 "/>
   <polygon class="fil29" points="15.522,12.04 24.475,12.04 23.786,11.691 16.211,11.691 "/>
   <path class="fil30" d="M3.539 31.854l4.27 0 -0.551 -0.661 -4.063 0c0.095,0.232 0.166,0.551 0.344,0.661z"/>
   <path class="fil30" d="M32.188 31.854l4.27 0c0.178,-0.11 0.249,-0.429 0.344,-0.661l-4.063 0 -0.551 0.661z"/>
   <polygon class="fil31" points="4.021,7.17 8.842,7.17 9.737,6.622 4.434,6.622 "/>
   <polygon class="fil31" points="31.155,7.17 35.976,7.17 35.562,6.622 30.26,6.622 "/>
   <polygon class="fil16" points="34.047,26.296 37.629,26.296 37.629,25.561 34.047,25.561 "/>
   <polygon class="fil32" points="11.528,23.392 15.591,23.392 15.178,22.737 11.321,22.737 "/>
   <polygon class="fil32" points="24.406,23.392 28.469,23.392 28.676,22.737 24.819,22.737 "/>
   <polygon class="fil33" points="20.894,25.475 27.23,25.475 27.574,25.051 22.271,25.051 "/>
   <polygon class="fil33" points="12.767,25.475 19.103,25.475 17.726,25.051 12.423,25.051 "/>
   <path class="fil34" d="M27.161 11.848l3.925 0c0.148,-0.152 0.201,-0.344 0.207,-0.589l-4.339 0 0.207 0.589z"/>
   <polygon class="fil35" points="4.572,33.525 10.219,33.525 9.255,33.074 4.228,33.074 "/>
   <polygon class="fil35" points="29.778,33.525 35.425,33.525 35.769,33.074 30.742,33.074 "/>
   <polygon class="fil32" points="2.368,23.392 5.95,23.392 5.95,22.737 2.368,22.737 "/>
   <polygon class="fil32" points="34.047,23.392 37.629,23.392 37.629,22.737 34.047,22.737 "/>
   <polygon class="fil36" points="32.739,31.193 36.802,31.193 37.009,30.607 33.152,30.607 "/>
   <polygon class="fil36" points="3.195,31.193 7.258,31.193 6.845,30.607 2.988,30.607 "/>
   <polygon class="fil37" points="28.676,33.9 35.149,33.9 35.425,33.525 29.778,33.525 "/>
   <polygon class="fil37" points="4.848,33.9 11.321,33.9 10.219,33.525 4.572,33.525 "/>
   <path class="fil38" d="M27.023 10.341l4.201 0c-0.02,-0.228 -0.131,-0.494 -0.275,-0.568l-3.65 0 -0.276 0.568z"/>
   <polygon class="fil39" points="26.954,11.259 31.293,11.259 31.293,10.739 26.954,10.739 "/>
   <polygon class="fil34" points="16.211,11.691 23.786,11.691 22.96,11.364 17.037,11.364 "/>
   <path class="fil40" d="M30.26 6.622l5.302 0 -0.275 -0.386 -5.854 0c0.14,0.186 0.553,0.363 0.827,0.386z"/>
   <path class="fil40" d="M4.434 6.622l5.303 0c0.273,-0.023 0.687,-0.2 0.826,-0.386l-5.853 0 -0.276 0.386z"/>
   <polygon class="fil41" points="10.977,21.401 14.627,21.401 14.489,20.792 10.908,20.792 "/>
   <polygon class="fil41" points="25.37,21.401 29.02,21.401 29.089,20.792 25.508,20.792 "/>
   <polygon class="fil42" points="12.423,25.051 17.726,25.051 16.83,24.614 12.147,24.614 "/>
   <polygon class="fil42" points="22.271,25.051 27.574,25.051 27.849,24.614 23.167,24.614 "/>
   <polygon class="fil41" points="34.047,21.401 37.629,21.401 37.629,20.792 34.047,20.792 "/>
   <polygon class="fil41" points="2.368,21.401 5.95,21.401 5.95,20.792 2.368,20.792 "/>
   <polygon class="fil34" points="2.368,11.848 6.018,11.848 6.156,11.259 2.506,11.259 "/>
   <polygon class="fil34" points="33.979,11.848 37.629,11.848 37.491,11.259 33.841,11.259 "/>
   <path class="fil43" d="M17.037 11.364l5.923 0c-1.115,-0.666 -4.808,-0.666 -5.923,0z"/>
   <polygon class="fil14" points="34.047,14.048 37.629,14.048 37.629,13.451 34.047,13.451 "/>
   <polygon class="fil14" points="2.368,14.048 5.95,14.048 5.95,13.451 2.368,13.451 "/>
   <polygon class="fil44" points="30.742,33.074 35.769,33.074 36.045,32.635 31.362,32.635 "/>
   <polygon class="fil44" points="4.228,33.074 9.255,33.074 8.635,32.635 3.952,32.635 "/>
   <polygon class="fil45" points="24.819,22.737 28.676,22.737 28.882,22.197 25.095,22.197 "/>
   <polygon class="fil45" points="11.321,22.737 15.178,22.737 14.902,22.197 11.115,22.197 "/>
   <polygon class="fil27" points="27.505,12.424 30.742,12.424 31.086,11.848 27.161,11.848 "/>
   <polygon class="fil46" points="24.957,17.476 28.814,17.476 28.607,16.947 24.682,16.947 "/>
   <polygon class="fil46" points="11.183,17.476 15.04,17.476 15.315,16.947 11.39,16.947 "/>
   <path class="fil47" d="M12.561 14.76l5.509 0c0.268,-0.043 0.553,-0.156 0.83,-0.214 0.271,-0.058 0.809,-0.056 0.961,-0.115l-7.094 0 -0.206 0.329z"/>
   <path class="fil47" d="M21.927 14.76l5.509 0 -0.206 -0.329 -7.094 0c0.163,0.063 0.643,0.049 0.904,0.102 0.307,0.063 0.6,0.181 0.887,0.227z"/>
   <polygon class="fil48" points="23.58,24.23 28.056,24.23 28.262,23.77 24.062,23.77 "/>
   <polygon class="fil48" points="11.941,24.23 16.417,24.23 15.935,23.77 11.734,23.77 "/>
   <polygon class="fil49" points="3.539,7.989 7.878,7.989 8.429,7.552 3.815,7.552 "/>
   <polygon class="fil49" points="32.119,7.989 36.458,7.989 36.182,7.552 31.568,7.552 "/>
   <polygon class="fil50" points="11.39,16.947 15.315,16.947 15.66,16.46 11.597,16.46 "/>
   <polygon class="fil50" points="24.682,16.947 28.607,16.947 28.4,16.46 24.337,16.46 "/>
   <polygon class="fil45" points="34.047,22.737 37.629,22.737 37.629,22.197 34.047,22.197 "/>
   <polygon class="fil45" points="2.368,22.737 5.95,22.737 5.95,22.197 2.368,22.197 "/>
   <polygon class="fil27" points="2.368,12.373 5.95,12.373 6.018,11.848 2.368,11.848 "/>
   <polygon class="fil27" points="34.047,12.373 37.629,12.373 37.629,11.848 33.979,11.848 "/>
   <polygon class="fil46" points="34.047,17.476 37.629,17.476 37.629,16.947 34.047,16.947 "/>
   <polygon class="fil46" points="2.368,17.476 5.95,17.476 5.95,16.947 2.368,16.947 "/>
   <polygon class="fil33" points="34.047,25.561 37.629,25.561 37.629,25.051 34.047,25.051 "/>
   <polygon class="fil51" points="3.746,32.269 8.222,32.269 7.809,31.854 3.539,31.854 "/>
   <polygon class="fil51" points="31.775,32.269 36.251,32.269 36.458,31.854 32.188,31.854 "/>
   <polygon class="fil52" points="31.568,7.552 36.182,7.552 35.976,7.17 31.155,7.17 "/>
   <polygon class="fil52" points="3.815,7.552 8.429,7.552 8.842,7.17 4.021,7.17 "/>
   <polygon class="fil17" points="2.368,27.186 5.95,27.186 5.95,26.689 2.368,26.689 "/>
   <polygon class="fil17" points="34.047,27.186 37.629,27.186 37.629,26.689 34.047,26.689 "/>
   <polygon class="fil53" points="23.167,24.614 27.849,24.614 28.056,24.23 23.58,24.23 "/>
   <polygon class="fil53" points="12.147,24.614 16.83,24.614 16.417,24.23 11.941,24.23 "/>
   <polygon class="fil54" points="12.285,15.093 17.313,15.093 18.07,14.76 12.561,14.76 "/>
   <polygon class="fil54" points="22.684,15.093 27.712,15.093 27.436,14.76 21.927,14.76 "/>
   <polygon class="fil50" points="34.047,16.947 37.629,16.947 37.629,16.46 34.047,16.46 "/>
   <polygon class="fil50" points="2.368,16.947 5.95,16.947 5.95,16.46 2.368,16.46 "/>
   <polygon class="fil55" points="2.713,29.781 6.432,29.781 6.294,29.321 2.575,29.321 "/>
   <polygon class="fil55" points="33.565,29.781 37.284,29.781 37.422,29.321 33.703,29.321 "/>
   <polygon class="fil56" points="26.954,10.739 31.293,10.739 31.224,10.341 27.023,10.341 "/>
   <polygon class="fil57" points="10.977,18.729 14.558,18.729 14.695,18.261 11.045,18.261 "/>
   <polygon class="fil57" points="25.439,18.729 29.02,18.729 28.951,18.261 25.301,18.261 "/>
   <polygon class="fil58" points="3.952,32.635 8.635,32.635 8.222,32.269 3.746,32.269 "/>
   <polygon class="fil58" points="31.362,32.635 36.045,32.635 36.251,32.269 31.775,32.269 "/>
   <polygon class="fil57" points="34.047,18.729 37.629,18.729 37.629,18.261 34.047,18.261 "/>
   <polygon class="fil57" points="2.368,18.729 5.95,18.729 5.95,18.261 2.368,18.261 "/>
   <polygon class="fil59" points="2.575,29.321 6.294,29.321 6.156,28.867 2.506,28.867 "/>
   <polygon class="fil59" points="33.703,29.321 37.422,29.321 37.491,28.867 33.841,28.867 "/>
   <polygon class="fil60" points="23.235,15.437 27.918,15.437 27.712,15.093 22.684,15.093 "/>
   <polygon class="fil60" points="12.079,15.437 16.762,15.437 17.313,15.093 12.285,15.093 "/>
   <polygon class="fil61" points="25.095,22.197 28.882,22.197 28.951,21.758 25.232,21.758 "/>
   <polygon class="fil61" points="11.115,22.197 14.902,22.197 14.765,21.758 11.045,21.758 "/>
   <polygon class="fil16" points="2.368,26.296 5.95,26.296 5.95,25.836 2.368,25.836 "/>
   <polygon class="fil48" points="2.368,24.23 5.95,24.23 5.95,23.77 2.368,23.77 "/>
   <polygon class="fil48" points="34.047,24.23 37.629,24.23 37.629,23.77 34.047,23.77 "/>
   <polygon class="fil62" points="33.359,30.203 37.215,30.203 37.284,29.781 33.565,29.781 "/>
   <polygon class="fil62" points="2.781,30.203 6.638,30.203 6.432,29.781 2.713,29.781 "/>
   <path class="fil24" d="M30.742 12.424l-3.237 0c0.762,0.892 2.485,0.962 3.237,0z"/>
   <polygon class="fil63" points="33.841,28.867 37.491,28.867 37.56,28.433 33.91,28.433 "/>
   <polygon class="fil63" points="2.506,28.867 6.156,28.867 6.087,28.433 2.437,28.433 "/>
   <polygon class="fil61" points="34.047,22.197 37.629,22.197 37.629,21.758 34.047,21.758 "/>
   <polygon class="fil61" points="2.368,22.197 5.95,22.197 5.95,21.758 2.368,21.758 "/>
   <polygon class="fil64" points="25.508,19.542 29.089,19.542 29.089,19.105 25.508,19.105 "/>
   <polygon class="fil64" points="34.047,19.542 37.629,19.542 37.629,19.105 34.047,19.105 "/>
   <polygon class="fil64" points="10.908,19.542 14.489,19.542 14.489,19.105 10.908,19.105 "/>
   <polygon class="fil64" points="2.368,19.542 5.95,19.542 5.95,19.105 2.368,19.105 "/>
   <polygon class="fil42" points="2.368,25.051 5.95,25.051 5.95,24.614 2.368,24.614 "/>
   <polygon class="fil42" points="34.047,25.051 37.629,25.051 37.629,24.614 34.047,24.614 "/>
   <polygon class="fil65" points="11.734,23.77 15.935,23.77 15.591,23.392 11.528,23.392 "/>
   <polygon class="fil65" points="24.062,23.77 28.262,23.77 28.469,23.392 24.406,23.392 "/>
   <polygon class="fil66" points="33.152,30.607 37.009,30.607 37.215,30.203 33.359,30.203 "/>
   <polygon class="fil66" points="2.988,30.607 6.845,30.607 6.638,30.203 2.781,30.203 "/>
   <path class="fil67" d="M11.597 16.46l4.063 0c0.188,-0.106 0.248,-0.177 0.344,-0.368l-4.27 0 -0.137 0.368z"/>
   <path class="fil67" d="M24.337 16.46l4.063 0 -0.138 -0.368 -4.269 0c0.096,0.191 0.156,0.262 0.344,0.368z"/>
   <polygon class="fil68" points="3.057,9.044 7.051,9.044 7.327,8.661 3.263,8.661 "/>
   <polygon class="fil68" points="32.946,9.044 36.94,9.044 36.734,8.661 32.67,8.661 "/>
   <polygon class="fil69" points="2.437,28.433 6.087,28.433 6.018,28.013 2.368,28.013 "/>
   <polygon class="fil69" points="33.91,28.433 37.56,28.433 37.629,28.013 33.979,28.013 "/>
   <path class="fil70" d="M33.152 9.43l3.857 0 -0.069 -0.386 -3.994 0c0.048,0.161 0.124,0.236 0.206,0.386z"/>
   <path class="fil70" d="M2.988 9.43l3.857 0c0.082,-0.15 0.158,-0.225 0.206,-0.386l-3.994 0 -0.069 0.386z"/>
   <polygon class="fil33" points="2.368,25.475 5.95,25.475 5.95,25.051 2.368,25.051 "/>
   <polygon class="fil71" points="32.395,8.344 36.596,8.344 36.458,7.989 32.119,7.989 "/>
   <polygon class="fil71" points="3.401,8.344 7.602,8.344 7.878,7.989 3.539,7.989 "/>
   <polygon class="fil72" points="23.648,15.77 28.056,15.77 27.918,15.437 23.235,15.437 "/>
   <polygon class="fil72" points="11.941,15.77 16.348,15.77 16.762,15.437 12.079,15.437 "/>
   <path class="fil59" d="M22.547 28.701l-5.097 0c0.169,0.154 -0.018,0.037 0.246,0.127 0.096,0.033 0.194,0.049 0.277,0.067 0.227,0.05 0.413,0.082 0.644,0.114l1.381 0.134c0.258,0 0.324,-0.063 0.619,-0.071 0.314,-0.008 0.419,-0.014 0.703,-0.055 0.337,-0.049 0.986,-0.096 1.227,-0.316z"/>
   <polygon class="fil25" points="2.368,27.606 5.95,27.606 5.95,27.186 2.368,27.186 "/>
   <polygon class="fil25" points="34.047,27.606 37.629,27.606 37.629,27.186 34.047,27.186 "/>
   <polygon class="fil73" points="2.368,19.96 5.95,19.96 5.95,19.542 2.368,19.542 "/>
   <polygon class="fil73" points="34.047,19.96 37.629,19.96 37.629,19.542 34.047,19.542 "/>
   <polygon class="fil73" points="10.839,19.96 14.42,19.96 14.489,19.542 10.908,19.542 "/>
   <polygon class="fil73" points="25.577,19.96 29.158,19.96 29.089,19.542 25.508,19.542 "/>
   <polygon class="fil74" points="25.164,17.871 28.882,17.871 28.814,17.476 24.957,17.476 "/>
   <polygon class="fil74" points="11.115,17.871 14.833,17.871 15.04,17.476 11.183,17.476 "/>
   <polygon class="fil75" points="2.368,28.013 6.018,28.013 5.95,27.606 2.368,27.606 "/>
   <polygon class="fil75" points="33.979,28.013 37.629,28.013 37.629,27.606 34.047,27.606 "/>
   <path class="fil76" d="M2.644 10.496l3.65 0c0.154,-0.078 0.132,-0.168 0.206,-0.389l-3.787 0 -0.069 0.389z"/>
   <path class="fil77" d="M27.643 9.406l3.03 0c-0.469,-0.845 -2.566,-0.896 -3.03,0z"/>
   <path class="fil39" d="M2.506 11.259l3.65 0 0.069 -0.392 -3.65 0c-0.106,0.205 -0.069,0.122 -0.069,0.392z"/>
   <path class="fil39" d="M33.841 11.259l3.65 0c0,-0.27 0.037,-0.187 -0.069,-0.392l-3.65 0 0.069 0.392z"/>
   <polygon class="fil78" points="25.301,18.261 28.951,18.261 28.882,17.871 25.164,17.871 "/>
   <polygon class="fil78" points="11.045,18.261 14.695,18.261 14.833,17.871 11.115,17.871 "/>
   <polygon class="fil74" points="2.368,17.871 5.95,17.871 5.95,17.476 2.368,17.476 "/>
   <polygon class="fil74" points="34.047,17.871 37.629,17.871 37.629,17.476 34.047,17.476 "/>
   <polygon class="fil20" points="2.368,26.689 5.95,26.689 5.95,26.296 2.368,26.296 "/>
   <polygon class="fil20" points="34.047,26.689 37.629,26.689 37.629,26.296 34.047,26.296 "/>
   <polygon class="fil78" points="34.047,18.261 37.629,18.261 37.629,17.871 34.047,17.871 "/>
   <polygon class="fil78" points="2.368,18.261 5.95,18.261 5.95,17.871 2.368,17.871 "/>
   <polygon class="fil79" points="23.993,16.092 28.262,16.092 28.056,15.77 23.648,15.77 "/>
   <polygon class="fil79" points="11.734,16.092 16.004,16.092 16.348,15.77 11.941,15.77 "/>
   <polygon class="fil53" points="34.047,24.614 37.629,24.614 37.629,24.23 34.047,24.23 "/>
   <polygon class="fil53" points="2.368,24.614 5.95,24.614 5.95,24.23 2.368,24.23 "/>
   <polygon class="fil38" points="33.497,10.135 37.284,10.135 37.147,9.773 33.359,9.773 "/>
   <polygon class="fil18" points="2.368,14.431 5.95,14.431 5.95,14.048 2.368,14.048 "/>
   <polygon class="fil18" points="34.047,14.431 37.629,14.431 37.629,14.048 34.047,14.048 "/>
   <path class="fil76" d="M33.703 10.496l3.65 0 -0.069 -0.361 -3.787 0c0.107,0.231 0.031,0.272 0.206,0.361z"/>
   <polygon class="fil65" points="34.047,23.77 37.629,23.77 37.629,23.392 34.047,23.392 "/>
   <polygon class="fil65" points="2.368,23.77 5.95,23.77 5.95,23.392 2.368,23.392 "/>
   <polygon class="fil56" points="2.575,10.867 6.225,10.867 6.294,10.496 2.644,10.496 "/>
   <polygon class="fil56" points="33.772,10.867 37.422,10.867 37.353,10.496 33.703,10.496 "/>
   <path class="fil80" d="M10.908 19.105l3.581 0c0.106,-0.194 0.069,-0.11 0.069,-0.376l-3.581 0 -0.069 0.376z"/>
   <path class="fil80" d="M25.508 19.105l3.581 0 -0.069 -0.376 -3.581 0c0,0.266 -0.037,0.182 0.069,0.376z"/>
   <polygon class="fil80" points="2.368,19.105 5.95,19.105 5.95,18.729 2.368,18.729 "/>
   <polygon class="fil80" points="34.047,19.105 37.629,19.105 37.629,18.729 34.047,18.729 "/>
   <polygon class="fil22" points="34.047,13.451 37.629,13.451 37.629,13.079 34.047,13.079 "/>
   <polygon class="fil22" points="2.368,13.451 5.95,13.451 5.95,13.079 2.368,13.079 "/>
   <path class="fil81" d="M2.85 9.773l3.788 0c0.06,-0.109 0.162,-0.242 0.207,-0.343l-3.857 0c-0.113,-0.001 -0.11,0.19 -0.138,0.343z"/>
   <path class="fil81" d="M33.359 9.773l3.788 0c-0.019,-0.115 -0.009,-0.112 -0.044,-0.203 -0.06,-0.154 -0.017,-0.092 -0.094,-0.14l-3.857 0c0.045,0.101 0.147,0.234 0.207,0.343z"/>
   <polygon class="fil67" points="2.368,16.46 5.95,16.46 5.95,16.092 2.368,16.092 "/>
   <polygon class="fil67" points="34.047,16.46 37.629,16.46 37.629,16.092 34.047,16.092 "/>
   <polygon class="fil82" points="25.232,21.758 28.951,21.758 29.02,21.401 25.37,21.401 "/>
   <polygon class="fil82" points="11.045,21.758 14.765,21.758 14.627,21.401 10.977,21.401 "/>
   <polygon class="fil83" points="32.67,8.661 36.734,8.661 36.596,8.344 32.395,8.344 "/>
   <polygon class="fil83" points="3.263,8.661 7.327,8.661 7.602,8.344 3.401,8.344 "/>
   <polygon class="fil24" points="34.047,13.079 37.629,13.079 37.629,12.717 34.047,12.717 "/>
   <polygon class="fil24" points="2.368,13.079 5.95,13.079 5.95,12.717 2.368,12.717 "/>
   <polygon class="fil19" points="2.368,25.836 5.95,25.836 5.95,25.475 2.368,25.475 "/>
   <polygon class="fil82" points="34.047,21.758 37.629,21.758 37.629,21.401 34.047,21.401 "/>
   <polygon class="fil82" points="2.368,21.758 5.95,21.758 5.95,21.401 2.368,21.401 "/>
   <path class="fil38" d="M2.713 10.107l3.787 0 0.138 -0.334 -3.788 0c-0.125,0.102 0.035,-0.138 -0.064,0.101 -0.002,0.002 -0.069,0.221 -0.073,0.233z"/>
   <path class="fil81" d="M27.299 9.773l3.65 0c-0.078,-0.176 -0.109,-0.295 -0.276,-0.367l-3.03 0c-0.201,0.078 -0.256,0.168 -0.344,0.367z"/>
   <polygon class="fil26" points="34.047,12.717 37.629,12.717 37.629,12.373 34.047,12.373 "/>
   <polygon class="fil60" points="2.368,15.437 5.95,15.437 5.95,15.093 2.368,15.093 "/>
   <polygon class="fil60" points="34.047,15.437 37.629,15.437 37.629,15.093 34.047,15.093 "/>
   <polygon class="fil26" points="2.368,12.717 5.95,12.717 5.95,12.373 2.368,12.373 "/>
   <polygon class="fil72" points="34.047,15.77 37.629,15.77 37.629,15.437 34.047,15.437 "/>
   <polygon class="fil72" points="2.368,15.77 5.95,15.77 5.95,15.437 2.368,15.437 "/>
   <polygon class="fil54" points="2.368,15.093 5.95,15.093 5.95,14.76 2.368,14.76 "/>
   <polygon class="fil54" points="34.047,15.093 37.629,15.093 37.629,14.76 34.047,14.76 "/>
   <polygon class="fil47" points="34.047,14.76 37.629,14.76 37.629,14.431 34.047,14.431 "/>
   <polygon class="fil47" points="2.368,14.76 5.95,14.76 5.95,14.431 2.368,14.431 "/>
   <polygon class="fil79" points="2.368,16.092 5.95,16.092 5.95,15.77 2.368,15.77 "/>
   <polygon class="fil79" points="34.047,16.092 37.629,16.092 37.629,15.77 34.047,15.77 "/>
   <polygon class="fil84" points="9.6,2.846 30.397,2.846 "/>
   <polygon class="fil85" points="29.984,37.156 10.013,37.156 "/>
  </g>
 </g>
</svg>
