<?xml version="1.0" encoding="UTF-8"?>
<!DOCTYPE svg PUBLIC "-//W3C//DTD SVG 1.1//EN" "http://www.w3.org/Graphics/SVG/1.1/DTD/svg11.dtd">
<!-- Creator: CorelDRAW 2020 (64 Bit Versão de avaliação) -->
<svg xmlns="http://www.w3.org/2000/svg" xml:space="preserve" width="40px" height="40px" version="1.1" style="shape-rendering:geometricPrecision; text-rendering:geometricPrecision; image-rendering:optimizeQuality; fill-rule:evenodd; clip-rule:evenodd"
viewBox="0 0 40 40.001"
 xmlns:xlink="http://www.w3.org/1999/xlink"
 xmlns:xodm="http://www.corel.com/coreldraw/odm/2003">
 <defs>
  <style type="text/css">
   <![CDATA[
    .str0 {stroke:#0E76A8;stroke-width:0.687;stroke-miterlimit:22.9256}
    .fil1 {fill:#0E76A8}
    .fil0 {fill:white}
   ]]>
  </style>
 </defs>
 <g id="Camada_x0020_1">
  <metadata id="CorelCorpID_0Corel-Layer"/>
  <rect class="fil0 str0" x="3.932" y="4.076" width="31.935" height="31.594"/>
  <path class="fil1" d="M7.111 33.031l0 -16.712c0,-1.496 1.657,-1.133 2.974,-1.133 0.532,0 1.566,-0.059 2.039,0.014 0.682,0.105 0.938,0.428 0.936,1.118l-0.001 16.5c0.006,1.649 -0.903,1.275 -2.832,1.275 -0.94,0 -2.418,0.169 -2.845,-0.272 -0.137,-0.142 -0.271,-0.6 -0.271,-0.79zm-2.37 -31.158l26.941 0 3.231 0c1.466,0.156 2.738,0.743 3.172,2.661 0.017,0.073 0.03,0.168 0.041,0.281l0 4.21 0 22.66 0 3.291c-0.036,0.388 -0.098,0.744 -0.202,1.039 -0.387,1.099 -1.375,1.828 -2.458,2.073 -0.073,0.017 -0.168,0.03 -0.281,0.041l-4.211 0 -22.659 0 -3.231 0c-1.466,-0.156 -2.738,-0.743 -3.172,-2.661 -0.017,-0.072 -0.03,-0.167 -0.041,-0.28l0 -4.211 0 -22.66 0 -3.009c0.029,-0.527 0.089,-0.999 0.202,-1.32 0.265,-0.754 0.932,-1.449 1.614,-1.785 0.483,-0.239 0.567,-0.177 0.863,-0.253 0.066,-0.016 -0.063,-0.043 0.191,-0.077zm16.957 15.65c0.153,-0.042 0.543,-0.549 0.791,-0.838 0.026,-0.029 0.077,-0.096 0.096,-0.116 2.123,-2.122 6.476,-2.108 8.871,-0.52 1.493,0.99 2.074,2.579 2.493,4.235 0.541,2.139 0.353,7.319 0.353,9.773 0,0.675 0.088,2.882 -0.023,3.375 -0.203,0.902 -1.409,0.661 -2.738,0.661 -0.567,0 -1.133,0 -1.7,0 -1.464,0 -1.628,-0.01 -1.628,-1.7l0 -5.098c0,-1.815 0.279,-4.683 -0.707,-6.092 -1.066,-1.524 -3.313,-1.528 -4.587,-0.264 -1.357,1.348 -1.221,3.696 -1.221,5.577 0,2.24 0.022,4.491 0.003,6.73 -0.01,1.175 -1.655,0.847 -2.552,0.847 -3.801,0 -3.329,0.525 -3.329,-3.399l0 -13.525c0,-1.384 -0.22,-1.988 1.417,-1.983 4.818,0.016 4.461,-0.429 4.461,2.337zm-15.437 -7.506c0,-5.606 7.648,-5.224 7.648,-0.283 0,3.562 -4.202,4.946 -6.428,2.816 -0.643,-0.616 -1.22,-1.704 -1.22,-2.533z"/>
 </g>
</svg>
